<?xml version="1.0" encoding="UTF-8" standalone="no"?>
<svg
   xmlns:dc="http://purl.org/dc/elements/1.1/"
   xmlns:cc="http://creativecommons.org/ns#"
   xmlns:rdf="http://www.w3.org/1999/02/22-rdf-syntax-ns#"
   xmlns:svg="http://www.w3.org/2000/svg"
   xmlns="http://www.w3.org/2000/svg"
   xmlns:sodipodi="http://sodipodi.sourceforge.net/DTD/sodipodi-0.dtd"
   xmlns:inkscape="http://www.inkscape.org/namespaces/inkscape"
   inkscape:version="1.0 (4035a4fb49, 2020-05-01)"
   sodipodi:docname="v1.svg"
   version="1.1"
   id="svg2"
   xml:space="preserve"
   width="666.66669"
   height="666.66669"
   viewBox="0 0 666.66669 666.66669"><sodipodi:namedview
     inkscape:current-layer="g12"
     inkscape:window-maximized="1"
     inkscape:window-y="-8"
     inkscape:window-x="1912"
     inkscape:cy="333.33334"
     inkscape:cx="333.33334"
     inkscape:zoom="1.2405"
     showgrid="false"
     id="namedview318"
     inkscape:window-height="1017"
     inkscape:window-width="1920"
     inkscape:pageshadow="2"
     inkscape:pageopacity="0"
     guidetolerance="10"
     gridtolerance="10"
     objecttolerance="10"
     borderopacity="1"
     bordercolor="#666666"
     pagecolor="#ffffff" /><metadata
     id="metadata8"><rdf:RDF><cc:Work
         rdf:about=""><dc:format>image/svg+xml</dc:format><dc:type
           rdf:resource="http://purl.org/dc/dcmitype/StillImage" /><dc:title></dc:title></cc:Work></rdf:RDF></metadata><defs
     id="defs6"><clipPath
       clipPathUnits="userSpaceOnUse"
       id="clipPath34"><path
         d="m 1429.25,806.832 h 2141.5 v 3560.86 h -2141.5 z"
         id="path32" /></clipPath><clipPath
       clipPathUnits="userSpaceOnUse"
       id="clipPath440"><path
         d="m 3513.95,1208.66 c 0,55.87 -45.29,101.17 -101.16,101.17 -55.88,0 -101.17,-45.3 -101.17,-101.17 0,-55.87 45.29,-101.16 101.17,-101.16 55.87,0 101.16,45.29 101.16,101.16"
         id="path438" /></clipPath><clipPath
       clipPathUnits="userSpaceOnUse"
       id="clipPath454"><path
         d="m 1429.25,806.832 h 2141.5 v 3560.86 h -2141.5 z"
         id="path452" /></clipPath><clipPath
       clipPathUnits="userSpaceOnUse"
       id="clipPath468"><path
         d="m 2596.35,3966.46 h 212.828 v 85.8164 H 2596.35 Z"
         id="path466" /></clipPath><clipPath
       clipPathUnits="userSpaceOnUse"
       id="clipPath484"><path
         d="m 2594.97,3966.46 h 1.3828 v 85.8164 h -1.3828 z"
         id="path482" /></clipPath><clipPath
       clipPathUnits="userSpaceOnUse"
       id="clipPath500"><path
         d="m 2809.18,3966.46 h 93.1211 v 85.8164 H 2809.18 Z"
         id="path498" /></clipPath><clipPath
       clipPathUnits="userSpaceOnUse"
       id="clipPath516"><path
         d="m 1429.25,806.832 h 2141.5 v 3560.86 h -2141.5 z"
         id="path514" /></clipPath><clipPath
       clipPathUnits="userSpaceOnUse"
       id="clipPath614"><path
         d="m 3513.95,2731.2 c 0,55.88 -45.29,101.17 -101.16,101.17 -55.88,0 -101.17,-45.29 -101.17,-101.17 0,-55.87 45.29,-101.16 101.17,-101.16 55.87,0 101.16,45.29 101.16,101.16"
         id="path612" /></clipPath><clipPath
       clipPathUnits="userSpaceOnUse"
       id="clipPath628"><path
         d="m 1429.25,806.832 h 2141.5 v 3560.86 h -2141.5 z"
         id="path626" /></clipPath><clipPath
       id="clipPath34-8"
       clipPathUnits="userSpaceOnUse"><path
         id="path32-8"
         d="m 1429.25,806.832 h 2141.5 v 3560.86 h -2141.5 z" /></clipPath></defs><g
     id="g10"
     transform="matrix(1.3333333,0,0,-1.3333333,0,666.66667)"><g
       id="g12"
       transform="scale(0.1)"><path
         d="M 3370.86,312.98 H 1629.14 c -141.71,0 -256.6,114.879 -256.6,256.602 V 4430.42 c 0,141.72 114.89,256.6 256.6,256.6 h 1741.72 c 141.72,0 256.6,-114.88 256.6,-256.6 V 569.582 c 0,-141.723 -114.88,-256.602 -256.6,-256.602"
         style="fill:none;fill-opacity:1;fill-rule:nonzero;stroke:#05285b"
         id="path16" /><g
         id="g3724"><path
           id="path18"
           style="fill:#e6e6e6;fill-opacity:1;fill-rule:nonzero;stroke:none"
           d="m 2641.1903,552.34 c 0,86.332 -69.98,156.308 -156.31,156.308 -86.32,0 -156.3,-69.976 -156.3,-156.308 0,-86.32 69.98,-156.301 156.3,-156.301 86.33,0 156.31,69.981 156.31,156.301" /><path
           id="path20"
           style="fill:#dddedb;fill-opacity:1;fill-rule:nonzero;stroke:none"
           d="m 2663.2053,552.34 h 9.53 c -0.01,103.762 -84.1,187.851 -187.85,187.851 -103.75,0 -187.84,-84.089 -187.85,-187.851 0.01,-103.75 84.1,-187.84 187.85,-187.848 103.75,0.008 187.84,84.098 187.85,187.848 h -9.53 -9.53 c 0,-46.641 -18.88,-88.781 -49.44,-119.348 -30.57,-30.562 -72.71,-49.433 -119.35,-49.441 -46.64,0.008 -88.78,18.879 -119.35,49.441 -30.56,30.567 -49.44,72.707 -49.44,119.348 0,46.648 18.88,88.781 49.44,119.359 30.57,30.563 72.71,49.43 119.35,49.43 46.64,0 88.78,-18.867 119.35,-49.43 30.56,-30.578 49.44,-72.711 49.44,-119.359 h 9.53" /></g><path
         d="m 2771.84,4478.72 h -543.68 c -13.15,0 -23.82,10.67 -23.82,23.82 0,13.16 10.67,23.83 23.82,23.83 h 543.68 c 13.15,0 23.82,-10.67 23.82,-23.83 0,-13.15 -10.67,-23.82 -23.82,-23.82"
         style="fill:#e6e6e6;fill-opacity:1;fill-rule:nonzero;stroke:none"
         id="path22" /><path
         id="path90"
         style="fill:#05285b;fill-opacity:1;fill-rule:nonzero;stroke:none;stroke-width:0.999997"
         d="m 1527.5033,4328.6689 h 1.9304 v 1.9219 h -1.9304 z" /><path
         id="path158"
         style="fill:#05285b;fill-opacity:1;fill-rule:nonzero;stroke:none;stroke-width:0.999997"
         d="m 1742.2631,4328.6689 h 0.6407 v 1.9219 h -0.6407 z" /><path
         id="path402"
         style="fill:none;fill-opacity:1;fill-rule:nonzero;stroke:none;stroke-width:0.999997"
         d="M 3573.7731,4217.569 H 1432.273 v 150.1101 H 3573.7731 V 4217.569" /><g
         transform="matrix(10,0,0,10,3.0231153,-0.01101798)"
         id="g404"
         style="fill:#e6e6e6;stroke:none"><text
           id="text408"
           style="font-variant:normal;font-weight:bold;font-size:7.08792px;font-family:Raleway;-inkscape-font-specification:Raleway-Bold;writing-mode:lr-tb;fill:#e6e6e6;fill-opacity:1;fill-rule:nonzero;stroke:none"
           transform="matrix(1,0,0,-1,151.435,426.669)"><tspan
             id="tspan406"
             y="0"
             x="0 4.1535211 5.9042373 10.050671 13.523751 15.224853 19.640627"
             style="fill:#e6e6e6;stroke:none">4:31 PM</tspan></text></g><path
         id="path410"
         style="fill:#e6e6e6;fill-opacity:1;fill-rule:nonzero;stroke:none;stroke-width:0.999997"
         d="m 1814.093,4265.6789 c 1.2784,0 2.2394,0.9609 2.2394,2.2393 v 24.9602 c 0,1.2784 -0.961,2.2394 -2.2394,2.2394 -3.71,0 -7.0398,-1.5392 -9.5998,-4.03 v 3.2601 c 0,3.2598 0.8306,6.4599 2.4293,9.3498 3.3999,6.01 9.7999,9.8501 16.8299,9.8501 h 4.3599 c 6.9101,0 13.3702,-3.7701 16.7602,-9.8501 1.5987,-2.8899 2.4406,-6.1501 2.4406,-9.3498 v -3.2601 c -2.5002,2.4888 -5.8901,4.03 -9.6001,4.03 -1.2898,0 -2.2394,-0.961 -2.2394,-2.2394 v -25.02 c 0,-1.2812 0.9496,-2.2394 2.2394,-2.2394 7.4801,0 13.6301,6.2 14.01,14.01 v 14.6599 c 0,4.0301 -1.0205,8 -3.0099,11.52 -4.2202,7.42 -12.0302,12.0901 -20.6702,12.0901 h -4.3501 c -8.5799,0 -16.45,-4.6701 -20.6098,-12.0901 -1.9814,-3.4599 -3.0002,-7.4299 -3.0002,-11.52 v -14.6599 c 0.3799,-7.81 6.4602,-13.9501 14.0099,-13.9501" /><path
         id="path412"
         style="fill:#e6e6e6;fill-opacity:1;fill-rule:nonzero;stroke:none;stroke-width:0.999997"
         d="m 3345.6731,4266.199 h 9.8102 v 51.7799 h -9.8102 v -51.7799" /><path
         id="path414"
         style="fill:#e6e6e6;fill-opacity:1;fill-rule:nonzero;stroke:none;stroke-width:0.999997"
         d="m 3340.7632,4266.199 h -9.8101 v 42.8298 l 9.8101,5.9601 v -48.7899" /><path
         id="path416"
         style="fill:#e6e6e6;fill-opacity:1;fill-rule:nonzero;stroke:none;stroke-width:0.999997"
         d="m 3326.0531,4266.199 h -9.82 v 33.8698 l 9.82,5.97 v -39.8398" /><path
         id="path418"
         style="fill:#e6e6e6;fill-opacity:1;fill-rule:nonzero;stroke:none;stroke-width:0.999997"
         d="m 3311.3331,4266.199 h -9.8099 v 24.92 l 9.8099,5.9598 v -30.8798" /><path
         id="path424"
         style="fill:#e6e6e6;fill-opacity:1;fill-rule:nonzero;stroke:none;stroke-width:0.999997"
         d="m 3477.5432,4305.5989 v -32.83 h -45.9701 v 39.4001 h 45.9701 z m 16.4199,-3.28 h -3.2799 v 3.28 c 0,1.8198 -1.4712,3.28 -3.28,3.28 h -3.29 v 3.2901 c 0,3.6199 -2.94,6.5699 -6.57,6.5699 h -78.8002 c -3.63,0 -6.5698,-2.95 -6.5698,-6.5699 v -39.4001 c 0,-3.6301 2.9398,-6.5699 6.5698,-6.5699 h 78.8002 c 3.63,0 6.57,2.9398 6.57,6.5699 v 3.2799 h 3.29 c 1.8113,0 3.28,1.4712 3.28,3.28 v 3.2902 h 3.2799 c 1.8114,0 3.2901,1.4712 3.2901,3.28 v 13.13 c 0,1.8199 -1.4796,3.2899 -3.2901,3.2899" /><g
         transform="translate(424.90412,-1162.4164)"
         id="g1430"><path
           id="path564"
           style="fill:none;fill-opacity:1;fill-rule:nonzero;stroke:#05285b"
           d="m 2936.4198,2017.145 c 0,11.5 4.65,21.891 12.18,29.43 7.54,7.531 17.93,12.18 29.43,12.18 11.5,0 21.88,-4.649 29.42,-12.18 7.54,-7.539 12.19,-17.93 12.19,-29.43 0,-1.82 1.48,-3.289 3.29,-3.289 1.81,0 3.28,1.469 3.28,3.289 0,26.621 -21.57,48.18 -48.18,48.18 -26.61,0 -48.18,-21.57 -48.18,-48.18 0,-1.82 1.47,-3.289 3.28,-3.289 1.82,0 3.29,1.469 3.29,3.289" /><path
           id="path566"
           style="fill:none;fill-opacity:1;fill-rule:nonzero;stroke:#05285b"
           d="m 3003.5398,2098.606 h 3.29 c 0,15.91 -12.9,28.8 -28.8,28.8 -15.9,0 -28.79,-12.89 -28.8,-28.8 0.01,-15.898 12.9,-28.789 28.8,-28.789 15.9,0 28.8,12.891 28.8,28.789 h -3.29 -3.28 c -0.02,-12.269 -9.96,-22.199 -22.23,-22.218 -12.27,0.019 -22.2,9.949 -22.23,22.218 0.03,12.282 9.96,22.21 22.23,22.23 12.27,-0.02 22.21,-9.948 22.23,-22.23 h 3.28" /><g
           transform="matrix(10,0,0,10,-435.03023,1117.786)"
           id="g568"
           style="fill:#05285b;stroke:none"><text
             id="text574"
             style="font-variant:normal;font-weight:normal;font-size:3.82002px;font-family:Raleway;-inkscape-font-specification:Raleway-Regular;writing-mode:lr-tb;fill:#05285b;fill-opacity:1;fill-rule:nonzero;stroke:none"
             transform="matrix(1,0,0,-1,338.521,85.7898)"><tspan
               id="tspan570"
               y="0"
               x="0 3.3232532"
               style="fill:#05285b;stroke:none">Me</tspan><tspan
               id="tspan572"
               y="0.13281301"
               x="-47.698002 -46.750633 -44.523563 -42.167122 -39.978638"
               style="fill:#05285b;stroke:none">Inbox</tspan></text></g><path
           id="path576"
           style="fill:none;fill-opacity:1;fill-rule:nonzero;stroke:#05285b"
           d="m 2501.4898,2077.845 h 39.87 c 1.81,0 3.28,1.472 3.28,3.281 0,1.808 -1.47,3.281 -3.28,3.281 h -39.87 c -1.81,0 -3.28,-1.473 -3.28,-3.281 0,-1.809 1.47,-3.281 3.28,-3.281" /><path
           id="path578"
           style="fill:none;fill-opacity:1;fill-rule:nonzero;stroke:#05285b"
           d="m 2567.1998,2125.426 v 3.28 h -91.54 l -2.32,-0.96 -0.96,-2.32 v -85.64 l 0.96,-2.32 2.32,-0.961 h 23.2 l 20.77,-25.367 c 0.64,-0.793 1.63,-1.243 2.65,-1.204 1.02,0.032 1.98,0.551 2.57,1.383 l 17.83,25.188 h 24.52 l 2.32,0.961 0.96,2.32 v 85.64 l -0.96,2.32 -2.32,0.96 v -3.28 h -3.29 v -82.351 h -22.92 c -1.07,0 -2.07,-0.519 -2.68,-1.391 l -16.33,-23.046 -19.02,23.226 c -0.62,0.762 -1.56,1.211 -2.54,1.211 h -21.47 v 79.061 h 88.25 v 3.29 h -3.29 3.29" /><path
           id="path580"
           style="fill:none;fill-opacity:1;fill-rule:nonzero;stroke:#05285b"
           d="m 2100.8998,1982.235 h -102.41 c -18.66,0 -33.78,15.121 -33.78,33.781 v 59.239 c 0,18.652 15.12,33.781 33.78,33.781 h 102.41 c 18.65,0 33.78,-15.129 33.78,-33.781 v -59.239 c 0,-18.66 -15.13,-33.781 -33.78,-33.781" /><path
           id="path582"
           style="fill:none;fill-opacity:1;fill-rule:nonzero;stroke:#05285b"
           d="m 2131.1798,1982.235 h -102.41 c -18.66,0 -33.78,15.121 -33.78,33.781 v 59.239 c 0,18.652 15.12,33.781 33.78,33.781 h 102.41 c 18.65,0 33.77,-15.129 33.77,-33.781 v -59.239 c 0,-18.66 -15.12,-33.781 -33.77,-33.781" /><path
           id="path584"
           style="fill:none;fill-opacity:1;fill-rule:nonzero;stroke:#05285b"
           d="m 2116.0298,1982.235 h -102.4 c -18.66,0 -33.78,15.121 -33.78,33.781 v 59.239 c 0,18.652 15.12,33.781 33.78,33.781 h 102.4 c 18.67,0 33.78,-15.129 33.78,-33.781 v -59.239 c 0,-18.66 -15.11,-33.781 -33.78,-33.781" /><path
           id="path586"
           style="fill:none;fill-opacity:1;fill-rule:nonzero;stroke:#05285b"
           d="m 2059.5198,2074.024 v -60.566 c 0,-2.781 2.25,-5.031 5.03,-5.031 2.79,0 5.04,2.25 5.04,5.031 v 60.566 c 0,2.782 -2.25,5.032 -5.04,5.032 -2.78,0 -5.03,-2.25 -5.03,-5.032" /><path
           id="path588"
           style="fill:none;fill-opacity:1;fill-rule:nonzero;stroke:#05285b"
           d="m 2094.8298,2048.774 h -60.55 c -2.78,0 -5.04,-2.25 -5.04,-5.027 0,-2.781 2.26,-5.039 5.04,-5.039 h 60.55 c 2.78,0 5.04,2.258 5.04,5.039 0,2.777 -2.26,5.027 -5.04,5.027" /><g
           transform="matrix(10,0,0,10,-435.03023,1117.786)"
           id="g590"
           style="fill:#05285b;stroke:none"><text
             id="text594"
             style="font-variant:normal;font-weight:normal;font-size:3.82002px;font-family:Raleway;-inkscape-font-specification:Raleway-Regular;writing-mode:lr-tb;fill:#05285b;fill-opacity:1;fill-rule:nonzero;stroke:none"
             transform="matrix(1,0,0,-1,153.258,85.568)"><tspan
               id="tspan592"
               y="0"
               x="0 2.7924781 5.0653901 8.5759878"
               style="fill:#05285b;stroke:none">Home</tspan></text></g><path
           id="path596"
           style="fill:none;fill-opacity:1;fill-rule:nonzero;stroke:#05285b"
           d="m 1206.4198,2075.958 h -0.01 l -47.23,47.238 c -2.02,2.01 -4.69,3.13 -7.54,3.13 -2.85,0 -5.53,-1.12 -7.54,-3.13 l -47.21,-47.211 -0.04,-0.051 c -4.14,-4.16 -4.13,-10.898 0.01,-15.039 1.9,-1.91 4.4,-3 7.08,-3.121 l 0.33,-0.01 h 1.88 v -34.769 c 0,-6.871 5.6,-12.473 12.48,-12.473 h 18.47 c 1.88,0 3.4,1.524 3.4,3.391 v 27.262 c 0,3.129 2.55,5.687 5.69,5.687 h 10.9 c 3.14,0 5.69,-2.558 5.69,-5.687 v -27.262 c 0,-1.867 1.52,-3.391 3.39,-3.391 h 18.48 c 6.88,0 12.48,5.602 12.48,12.473 v 34.769 h 1.75 c 2.84,0 5.52,1.102 7.54,3.122 4.15,4.16 4.15,10.91 0,15.07" /><path
           id="path598"
           style="fill:none;fill-opacity:1;fill-rule:nonzero;stroke:#05285b"
           d="m 1642.0798,2081.985 h 2.57 c 0,25.223 -20.44,45.651 -45.65,45.651 -25.22,0 -45.66,-20.428 -45.66,-45.651 0.01,-25.211 20.44,-45.648 45.66,-45.66 25.21,0.012 45.65,20.449 45.65,45.66 h -2.57 -2.57 c 0,-11.187 -4.53,-21.308 -11.86,-28.648 -7.34,-7.332 -17.46,-11.871 -28.65,-11.871 -11.2,0 -21.31,4.539 -28.65,11.871 -7.34,7.34 -11.87,17.461 -11.87,28.648 0,11.199 4.53,21.313 11.87,28.653 7.34,7.338 17.45,11.858 28.65,11.868 11.19,-0.01 21.31,-4.53 28.65,-11.868 7.33,-7.34 11.86,-17.454 11.86,-28.653 h 2.57" /><path
           id="path600"
           style="fill:none;fill-opacity:1;fill-rule:nonzero;stroke:#05285b"
           d="m 1662.4998,2015.958 -30.77,35.898 c -0.93,1.078 -2.55,1.211 -3.63,0.282 -1.07,-0.922 -1.2,-2.543 -0.28,-3.622 l 30.78,-35.91 c 0.92,-1.07 2.54,-1.199 3.62,-0.281 1.08,0.93 1.2,2.551 0.28,3.633" /><g
           transform="matrix(10,0,0,10,-435.03023,1117.786)"
           id="g602"
           style="fill:#05285b;stroke:none"><text
             id="text606"
             style="font-variant:normal;font-weight:normal;font-size:3.82002px;font-family:Raleway;-inkscape-font-specification:Raleway-Regular;writing-mode:lr-tb;fill:#05285b;fill-opacity:1;fill-rule:nonzero;stroke:none"
             transform="matrix(1,0,0,-1,196.731,85.693)"><tspan
               id="tspan604"
               y="0"
               x="0 2.7313142 3.5640786 5.4244285 7.5023446 9.7025518 11.669847 13.912199"
               style="fill:#05285b;stroke:none">Discover</tspan></text></g></g></g></g></svg>
