<?xml version="1.0" encoding="UTF-8" standalone="no"?>
<svg
   xmlns:dc="http://purl.org/dc/elements/1.1/"
   xmlns:cc="http://creativecommons.org/ns#"
   xmlns:rdf="http://www.w3.org/1999/02/22-rdf-syntax-ns#"
   xmlns:svg="http://www.w3.org/2000/svg"
   xmlns="http://www.w3.org/2000/svg"
   xmlns:sodipodi="http://sodipodi.sourceforge.net/DTD/sodipodi-0.dtd"
   xmlns:inkscape="http://www.inkscape.org/namespaces/inkscape"
   inkscape:version="1.0 (4035a4fb49, 2020-05-01)"
   sodipodi:docname="v3.svg"
   id="svg3063"
   version="1.1"
   viewBox="0 0 210 297"
   height="297mm"
   width="210mm">
  <defs
     id="defs3057" />
  <sodipodi:namedview
     inkscape:window-maximized="1"
     inkscape:window-y="-8"
     inkscape:window-x="-8"
     inkscape:window-height="988"
     inkscape:window-width="1680"
     showgrid="false"
     inkscape:document-rotation="0"
     inkscape:current-layer="layer1"
     inkscape:document-units="mm"
     inkscape:cy="66.399858"
     inkscape:cx="103.80676"
     inkscape:zoom="6.6187304"
     inkscape:pageshadow="2"
     inkscape:pageopacity="0.0"
     borderopacity="1.0"
     bordercolor="#666666"
     pagecolor="#ffffff"
     id="base" />
  <metadata
     id="metadata3060">
    <rdf:RDF>
      <cc:Work
         rdf:about="">
        <dc:format>image/svg+xml</dc:format>
        <dc:type
           rdf:resource="http://purl.org/dc/dcmitype/StillImage" />
        <dc:title />
      </cc:Work>
    </rdf:RDF>
  </metadata>
  <g
     id="layer1"
     inkscape:groupmode="layer"
     inkscape:label="Layer 1">
    <path
       inkscape:export-ydpi="96"
       inkscape:export-xdpi="96"
       id="path16"
       style="fill:none;fill-opacity:1;fill-rule:nonzero;stroke:#000000;stroke-width:0.179;stroke-miterlimit:4;stroke-dasharray:none"
       d="M 187.49282,296.12741 H 42.679205 c -11.78233,0 -21.33474,-7.74104 -21.33474,-17.29092 V 18.677092 c 0,-9.5496854 9.55241,-17.29078 21.33474,-17.29078 H 187.49282 c 11.78316,0 21.33474,7.7410946 21.33474,17.29078 V 278.83649 c 0,9.54988 -9.55158,17.29092 -21.33474,17.29092" />
    <path
       id="path22"
       style="fill:#999999;fill-opacity:1;fill-rule:nonzero;stroke:none;stroke-width:0.0361218"
       d="m 124.90538,12.90447 h -19.63872 c -0.47501,0 -0.86043,-0.38542 -0.86043,-0.860422 0,-0.475363 0.38542,-0.860783 0.86043,-0.860783 h 19.63872 c 0.475,0 0.86042,0.38542 0.86042,0.860783 0,0.475002 -0.38542,0.860422 -0.86042,0.860422" />
    <path
       d="m 26.856082,18.32459 h 0.06973 v -0.06942 h -0.06973 z"
       style="fill:#999999;fill-opacity:1;fill-rule:nonzero;stroke:none;stroke-width:0.0361218"
       id="path90" />
    <path
       d="m 34.613601,18.32459 h 0.02314 v -0.06942 h -0.02314 z"
       style="fill:#999999;fill-opacity:1;fill-rule:nonzero;stroke:none;stroke-width:0.0361218"
       id="path158" />
    <g
       style="fill:#666666;stroke:none"
       id="g404"
       transform="matrix(0.36121837,0,0,-0.36121837,-28.210942,174.68445)">
      <text
         transform="matrix(1,0,0,-1,151.435,426.669)"
         style="font-variant:normal;font-weight:bold;font-size:7.08792px;font-family:Raleway;-inkscape-font-specification:Raleway-Bold;writing-mode:lr-tb;fill:#666666;fill-opacity:1;fill-rule:nonzero;stroke:none"
         id="text408"><tspan
           style="fill:#666666;stroke:none"
           x="0 4.1535211 5.9042373 10.050671 13.523751 15.224853 19.640627"
           y="0"
           id="tspan406">4:31 PM</tspan></text>
    </g>
    <path
       d="m 37.208229,20.599904 c 0.04618,0 0.08089,-0.03471 0.08089,-0.08089 v -0.901609 c 0,-0.04618 -0.03471,-0.08089 -0.08089,-0.08089 -0.134013,0 -0.254291,0.0556 -0.346763,0.145572 v -0.117761 c 0,-0.11775 0.03,-0.233343 0.08775,-0.337733 0.12281,-0.217092 0.35399,-0.355803 0.607927,-0.355803 h 0.157488 c 0.249606,0 0.482955,0.136183 0.605409,0.355803 0.05775,0.10439 0.08816,0.222153 0.08816,0.337733 v 0.117761 c -0.09031,-0.0899 -0.212762,-0.145572 -0.346773,-0.145572 -0.04659,0 -0.08089,0.03471 -0.08089,0.08089 v 0.903769 c 0,0.04628 0.0343,0.08089 0.08089,0.08089 0.270194,0 0.492344,-0.223955 0.506066,-0.506067 v -0.529538 c 0,-0.145575 -0.03686,-0.288975 -0.108723,-0.416124 -0.152442,-0.268024 -0.434554,-0.436716 -0.746647,-0.436716 H 37.55499 c -0.309921,0 -0.594204,0.168692 -0.744464,0.436716 -0.07157,0.124979 -0.108373,0.268382 -0.108373,0.416124 v 0.529543 c 0.01372,0.282111 0.233354,0.503902 0.506064,0.503902"
       style="fill:#666666;fill-opacity:1;fill-rule:nonzero;stroke:none;stroke-width:0.0361218"
       id="path410" />
    <g
       style="fill:#666666"
       inkscape:export-ydpi="96"
       inkscape:export-xdpi="96"
       transform="matrix(1.0239261,0,0,1.0239261,59.015185,-6.4059898)"
       id="g3705">
      <path
         id="path412"
         style="fill:#666666;fill-opacity:1;fill-rule:nonzero;stroke:none;stroke-width:0.0352777"
         d="m 136.38825,26.356499 h 0.34608 v -1.82668 h -0.34608 v 1.82668" />
      <path
         id="path414"
         style="fill:#666666;fill-opacity:1;fill-rule:nonzero;stroke:none;stroke-width:0.0352777"
         d="m 136.21504,26.356499 h -0.34608 v -1.51094 l 0.34608,-0.210259 v 1.721199" />
      <path
         id="path416"
         style="fill:#666666;fill-opacity:1;fill-rule:nonzero;stroke:none;stroke-width:0.0352777"
         d="m 135.6961,26.356499 h -0.34643 v -1.194851 l 0.34643,-0.210608 v 1.405459" />
      <path
         id="path418"
         style="fill:#666666;fill-opacity:1;fill-rule:nonzero;stroke:none;stroke-width:0.0352777"
         d="m 135.17681,26.356499 h -0.34607 v -0.879122 l 0.34607,-0.210249 v 1.089371" />
      <path
         id="path424"
         style="fill:#666666;fill-opacity:1;fill-rule:nonzero;stroke:none;stroke-width:0.0352777"
         d="m 141.04033,24.966558 v 1.15817 h -1.62172 V 24.73478 h 1.62172 z m 0.57926,0.115711 h -0.11571 v -0.115711 c 0,-0.0642 -0.0519,-0.115711 -0.11571,-0.115711 h -0.11606 V 24.73478 c 0,-0.127702 -0.10372,-0.231772 -0.23178,-0.231772 h -2.7799 c -0.12805,0 -0.23176,0.10407 -0.23176,0.231772 v 1.389948 c 0,0.128062 0.10371,0.231771 0.23176,0.231771 h 2.7799 c 0.12806,0 0.23178,-0.103709 0.23178,-0.231771 V 26.00902 h 0.11606 c 0.0639,0 0.11571,-0.0519 0.11571,-0.115711 v -0.116071 h 0.11571 c 0.0639,0 0.11607,-0.0519 0.11607,-0.115711 V 25.19833 c 0,-0.0642 -0.0522,-0.116061 -0.11607,-0.116061" />
    </g>
    <g
       style="fill:#808080"
       inkscape:export-ydpi="96"
       inkscape:export-xdpi="96"
       transform="matrix(0.03612184,0,0,-0.03612184,25.327383,305.38458)"
       id="g3724">
      <path
         d="m 2641.1903,552.34 c 0,86.332 -69.98,156.308 -156.31,156.308 -86.32,0 -156.3,-69.976 -156.3,-156.308 0,-86.32 69.98,-156.301 156.3,-156.301 86.33,0 156.31,69.981 156.31,156.301"
         style="fill:#808080;fill-opacity:1;fill-rule:nonzero;stroke:none"
         id="path18" />
      <path
         d="m 2663.2053,552.34 h 9.53 c -0.01,103.762 -84.1,187.851 -187.85,187.851 -103.75,0 -187.84,-84.089 -187.85,-187.851 0.01,-103.75 84.1,-187.84 187.85,-187.848 103.75,0.008 187.84,84.098 187.85,187.848 h -9.53 -9.53 c 0,-46.641 -18.88,-88.781 -49.44,-119.348 -30.57,-30.562 -72.71,-49.433 -119.35,-49.441 -46.64,0.008 -88.78,18.879 -119.35,49.441 -30.56,30.567 -49.44,72.707 -49.44,119.348 0,46.648 18.88,88.781 49.44,119.359 30.57,30.563 72.71,49.43 119.35,49.43 46.64,0 88.78,-18.867 119.35,-49.43 30.56,-30.578 49.44,-72.711 49.44,-119.359 h 9.53"
         style="fill:#808080;fill-opacity:1;fill-rule:nonzero;stroke:none"
         id="path20" />
    </g>
    <g
       inkscape:export-ydpi="96"
       inkscape:export-xdpi="96"
       id="g1430"
       transform="matrix(0.03612184,0,0,-0.03612184,40.675703,345.36122)">
      <path
         d="m 2936.4198,2017.145 c 0,11.5 4.65,21.891 12.18,29.43 7.54,7.531 17.93,12.18 29.43,12.18 11.5,0 21.88,-4.649 29.42,-12.18 7.54,-7.539 12.19,-17.93 12.19,-29.43 0,-1.82 1.48,-3.289 3.29,-3.289 1.81,0 3.28,1.469 3.28,3.289 0,26.621 -21.57,48.18 -48.18,48.18 -26.61,0 -48.18,-21.57 -48.18,-48.18 0,-1.82 1.47,-3.289 3.28,-3.289 1.82,0 3.29,1.469 3.29,3.289"
         style="fill:none;fill-opacity:1;fill-rule:nonzero;stroke:#05285b;stroke-width:3.76503524;stroke-miterlimit:4;stroke-dasharray:none"
         id="path564" />
      <path
         d="m 3003.5398,2098.606 h 3.29 c 0,15.91 -12.9,28.8 -28.8,28.8 -15.9,0 -28.79,-12.89 -28.8,-28.8 0.01,-15.898 12.9,-28.789 28.8,-28.789 15.9,0 28.8,12.891 28.8,28.789 h -3.29 -3.28 c -0.02,-12.269 -9.96,-22.199 -22.23,-22.218 -12.27,0.019 -22.2,9.949 -22.23,22.218 0.03,12.282 9.96,22.21 22.23,22.23 12.27,-0.02 22.21,-9.948 22.23,-22.23 h 3.28"
         style="fill:none;fill-opacity:1;fill-rule:nonzero;stroke:#000000;stroke-width:3.76503524;stroke-miterlimit:4;stroke-dasharray:none"
         id="path566" />
      <g
         style="fill:#000000;stroke:none"
         id="g568"
         transform="matrix(10,0,0,10,-435.03023,1117.786)">
        <text
           transform="matrix(1,0,0,-1,338.521,85.7898)"
           style="font-variant:normal;font-weight:normal;font-size:3.82002px;font-family:Raleway;-inkscape-font-specification:Raleway-Regular;writing-mode:lr-tb;fill:#000000;fill-opacity:1;fill-rule:nonzero;stroke:none"
           id="text574"><tspan
             style="fill:#000000;stroke:none"
             x="0 3.3232532"
             y="0"
             id="tspan570">Me</tspan><tspan
             style="fill:#000000;stroke:none"
             x="-47.698002 -46.750633 -44.523563 -42.167122 -39.978638"
             y="0.13281301"
             id="tspan572">Inbox</tspan></text>
      </g>
      <path
         d="m 2501.4898,2077.845 h 39.87 c 1.81,0 3.28,1.472 3.28,3.281 0,1.808 -1.47,3.281 -3.28,3.281 h -39.87 c -1.81,0 -3.28,-1.473 -3.28,-3.281 0,-1.809 1.47,-3.281 3.28,-3.281"
         style="fill:#000000;fill-opacity:1;fill-rule:nonzero;stroke:#05285b"
         id="path576" />
      <path
         d="m 2567.1998,2125.426 v 3.28 h -91.54 l -2.32,-0.96 -0.96,-2.32 v -85.64 l 0.96,-2.32 2.32,-0.961 h 23.2 l 20.77,-25.367 c 0.64,-0.793 1.63,-1.243 2.65,-1.204 1.02,0.032 1.98,0.551 2.57,1.383 l 17.83,25.188 h 24.52 l 2.32,0.961 0.96,2.32 v 85.64 l -0.96,2.32 -2.32,0.96 v -3.28 h -3.29 v -82.351 h -22.92 c -1.07,0 -2.07,-0.519 -2.68,-1.391 l -16.33,-23.046 -19.02,23.226 c -0.62,0.762 -1.56,1.211 -2.54,1.211 h -21.47 v 79.061 h 88.25 v 3.29 h -3.29 3.29"
         style="fill:none;fill-opacity:1;fill-rule:nonzero;stroke:#05285b;stroke-width:3.76503524;stroke-miterlimit:4;stroke-dasharray:none"
         id="path578" />
      <path
         d="m 2100.8998,1982.235 h -102.41 c -18.66,0 -33.78,15.121 -33.78,33.781 v 59.239 c 0,18.652 15.12,33.781 33.78,33.781 h 102.41 c 18.65,0 33.78,-15.129 33.78,-33.781 v -59.239 c 0,-18.66 -15.13,-33.781 -33.78,-33.781"
         style="fill:none;fill-opacity:1;fill-rule:nonzero;stroke:#05285b;stroke-width:3.76503524;stroke-miterlimit:4;stroke-dasharray:none"
         id="path580" />
      <path
         d="m 2131.1798,1982.235 h -102.41 c -18.66,0 -33.78,15.121 -33.78,33.781 v 59.239 c 0,18.652 15.12,33.781 33.78,33.781 h 102.41 c 18.65,0 33.77,-15.129 33.77,-33.781 v -59.239 c 0,-18.66 -15.12,-33.781 -33.77,-33.781"
         style="fill:none;fill-opacity:1;fill-rule:nonzero;stroke:#05285b;stroke-width:3.76503524;stroke-miterlimit:4;stroke-dasharray:none"
         id="path582" />
      <path
         d="m 2116.0298,1982.235 h -102.4 c -18.66,0 -33.78,15.121 -33.78,33.781 v 59.239 c 0,18.652 15.12,33.781 33.78,33.781 h 102.4 c 18.67,0 33.78,-15.129 33.78,-33.781 v -59.239 c 0,-18.66 -15.11,-33.781 -33.78,-33.781"
         style="fill:none;fill-opacity:1;fill-rule:nonzero;stroke:#000000;stroke-width:3.76503524;stroke-miterlimit:4;stroke-dasharray:none"
         id="path584" />
      <path
         d="m 2059.5198,2074.024 v -60.566 c 0,-2.781 2.25,-5.031 5.03,-5.031 2.79,0 5.04,2.25 5.04,5.031 v 60.566 c 0,2.782 -2.25,5.032 -5.04,5.032 -2.78,0 -5.03,-2.25 -5.03,-5.032"
         style="fill:#000000;fill-opacity:1;fill-rule:nonzero;stroke:#05285b"
         id="path586" />
      <path
         d="m 2094.8298,2048.774 h -60.55 c -2.78,0 -5.04,-2.25 -5.04,-5.027 0,-2.781 2.26,-5.039 5.04,-5.039 h 60.55 c 2.78,0 5.04,2.258 5.04,5.039 0,2.777 -2.26,5.027 -5.04,5.027"
         style="fill:#000000;fill-opacity:1;fill-rule:nonzero;stroke:#05285b"
         id="path588" />
      <g
         style="fill:#000000;stroke:none"
         id="g590"
         transform="matrix(10,0,0,10,-435.03023,1117.786)">
        <text
           transform="matrix(1,0,0,-1,153.258,85.568)"
           style="font-variant:normal;font-weight:normal;font-size:3.82002px;font-family:Raleway;-inkscape-font-specification:Raleway-Regular;writing-mode:lr-tb;fill:#000000;fill-opacity:1;fill-rule:nonzero;stroke:none"
           id="text594"><tspan
             style="fill:#000000;stroke:none"
             x="0 2.7924781 5.0653901 8.5759878"
             y="0"
             id="tspan592">Home</tspan></text>
      </g>
      <path
         d="m 1206.4198,2075.958 h -0.01 l -47.23,47.238 c -2.02,2.01 -4.69,3.13 -7.54,3.13 -2.85,0 -5.53,-1.12 -7.54,-3.13 l -47.21,-47.211 -0.04,-0.051 c -4.14,-4.16 -4.13,-10.898 0.01,-15.039 1.9,-1.91 4.4,-3 7.08,-3.121 l 0.33,-0.01 h 1.88 v -34.769 c 0,-6.871 5.6,-12.473 12.48,-12.473 h 18.47 c 1.88,0 3.4,1.524 3.4,3.391 v 27.262 c 0,3.129 2.55,5.687 5.69,5.687 h 10.9 c 3.14,0 5.69,-2.558 5.69,-5.687 v -27.262 c 0,-1.867 1.52,-3.391 3.39,-3.391 h 18.48 c 6.88,0 12.48,5.602 12.48,12.473 v 34.769 h 1.75 c 2.84,0 5.52,1.102 7.54,3.122 4.15,4.16 4.15,10.91 0,15.07"
         style="fill:none;fill-opacity:1;fill-rule:nonzero;stroke:#000000;stroke-width:3.76503524;stroke-miterlimit:4;stroke-dasharray:none"
         id="path596" />
      <path
         d="m 1642.0798,2081.985 h 2.57 c 0,25.223 -20.44,45.651 -45.65,45.651 -25.22,0 -45.66,-20.428 -45.66,-45.651 0.01,-25.211 20.44,-45.648 45.66,-45.66 25.21,0.012 45.65,20.449 45.65,45.66 h -2.57 -2.57 c 0,-11.187 -4.53,-21.308 -11.86,-28.648 -7.34,-7.332 -17.46,-11.871 -28.65,-11.871 -11.2,0 -21.31,4.539 -28.65,11.871 -7.34,7.34 -11.87,17.461 -11.87,28.648 0,11.199 4.53,21.313 11.87,28.653 7.34,7.338 17.45,11.858 28.65,11.868 11.19,-0.01 21.31,-4.53 28.65,-11.868 7.33,-7.34 11.86,-17.454 11.86,-28.653 h 2.57"
         style="fill:#000000;fill-opacity:1;fill-rule:nonzero;stroke:#000000"
         id="path598" />
      <path
         d="m 1662.4998,2015.958 -30.77,35.898 c -0.93,1.078 -2.55,1.211 -3.63,0.282 -1.07,-0.922 -1.2,-2.543 -0.28,-3.622 l 30.78,-35.91 c 0.92,-1.07 2.54,-1.199 3.62,-0.281 1.08,0.93 1.2,2.551 0.28,3.633"
         style="fill:#000000;fill-opacity:1;fill-rule:nonzero;stroke:#05285b"
         id="path600" />
      <g
         style="fill:#000000;stroke:none"
         id="g602"
         transform="matrix(10,0,0,10,-435.03023,1117.786)">
        <text
           transform="matrix(1,0,0,-1,196.731,85.693)"
           style="font-variant:normal;font-weight:normal;font-size:3.82002px;font-family:Raleway;-inkscape-font-specification:Raleway-Regular;writing-mode:lr-tb;fill:#000000;fill-opacity:1;fill-rule:nonzero;stroke:none"
           id="text606"><tspan
             style="fill:#000000;stroke:none"
             x="0 2.7313142 3.5640786 5.4244285 7.5023446 9.7025518 11.669847 13.912199"
             y="0"
             id="tspan604">Discover</tspan></text>
      </g>
    </g>
  </g>
</svg>
